<?xml version="1.0" standalone="no"?>
<!DOCTYPE svg PUBLIC "-//W3C//DTD SVG 20010904//EN"
 "http://www.w3.org/TR/2001/REC-SVG-20010904/DTD/svg10.dtd">
<svg version="1.0" xmlns="http://www.w3.org/2000/svg"
 width="120px" height="130px" viewBox="0 0 512.000000 512.000000"
 preserveAspectRatio="xMidYMid meet">

<g transform="translate(0.000000,512.000000) scale(0.100000,-0.100000)"
fill="#00a1e7" stroke="none">
<path d="M2465 5096 c-58 -27 -107 -78 -126 -133 -19 -51 -19 -294 -1 -346 8
-21 25 -51 38 -67 21 -24 24 -36 18 -65 -15 -84 -76 -132 -202 -159 -100 -22
-159 -53 -199 -105 -60 -78 -60 -87 -15 -459 31 -254 45 -340 59 -365 22 -38
86 -77 127 -77 24 0 27 -3 23 -22 -36 -153 -42 -210 -41 -433 1 -266 8 -312
79 -467 52 -113 57 -165 26 -278 -53 -191 -49 -341 15 -543 25 -77 38 -139 41
-197 5 -77 3 -88 -17 -113 -12 -15 -36 -35 -53 -43 -47 -24 -95 -73 -108 -111
l-11 -33 -132 0 c-122 0 -136 -2 -167 -23 -40 -26 -69 -79 -69 -124 0 -31 -2
-33 -38 -33 -21 0 -48 -7 -60 -16 l-22 -15 0 -390 0 -389 -153 0 c-122 0 -157
-3 -175 -16 -26 -18 -28 -37 -6 -58 14 -14 142 -16 1264 -16 1122 0 1250 2
1264 16 22 21 20 40 -6 58 -18 13 -53 16 -175 16 l-153 0 0 388 c0 288 -3 391
-12 400 -7 7 -33 12 -59 12 l-46 0 -5 51 c-6 59 -31 97 -79 121 -27 14 -60 18
-161 18 l-126 0 -11 33 c-14 41 -51 77 -109 106 -85 43 -93 141 -29 351 66
216 70 327 20 530 -36 150 -34 178 21 299 70 152 79 207 80 471 1 148 -4 246
-12 285 -7 33 -15 70 -17 81 -4 16 2 25 24 33 39 17 97 78 116 125 19 46 97
677 89 716 -17 78 -54 136 -109 170 -19 12 -78 32 -131 46 -110 27 -150 47
-180 92 -39 57 -39 94 -2 147 l33 47 3 156 c2 97 -1 171 -8 195 -24 83 -128
157 -220 157 -26 0 -66 -10 -95 -24z m176 -89 c57 -38 69 -75 69 -217 0 -143
-12 -179 -70 -218 -29 -20 -44 -23 -88 -20 -61 5 -96 28 -123 78 -27 49 -27
268 -1 320 25 50 75 80 132 80 32 0 58 -7 81 -23z m15 -585 c36 -94 126 -156
264 -182 84 -16 131 -46 155 -100 l19 -42 -38 -327 c-29 -244 -43 -335 -57
-363 -22 -43 -81 -78 -131 -78 -55 0 -471 82 -487 96 -2 1 15 25 38 52 l42 49
87 6 c48 3 107 13 132 22 24 9 73 20 109 25 35 5 68 13 73 18 14 14 28 213 17
234 -5 10 -21 18 -35 18 -31 0 -41 -23 -49 -112 l-6 -66 -42 -7 c-23 -4 -68
-15 -100 -26 -37 -12 -85 -19 -137 -19 -64 0 -83 -4 -97 -18 -10 -10 -49 -54
-87 -97 -39 -42 -84 -84 -102 -91 -41 -17 -91 -8 -109 20 -9 13 -29 146 -51
342 l-38 322 19 42 c24 54 71 84 155 100 138 26 228 88 264 182 l17 43 79 0
79 0 17 -43z m-224 -1097 c73 -19 198 -46 278 -61 80 -14 146 -27 147 -28 9
-8 32 -178 37 -266 8 -129 -8 -346 -29 -420 -9 -30 -34 -93 -55 -140 -55 -119
-59 -169 -24 -300 25 -91 28 -123 28 -240 0 -128 -2 -141 -38 -260 -31 -101
-40 -145 -43 -230 -4 -97 -3 -109 19 -150 17 -32 40 -54 79 -77 115 -68 110
-73 -76 -73 l-155 0 0 1055 c0 1044 0 1054 -20 1065 -14 8 -26 8 -40 0 -20
-11 -20 -21 -20 -1065 l0 -1055 -155 0 c-89 0 -155 4 -155 9 0 12 33 37 93 73
53 31 73 65 88 145 13 70 2 141 -49 313 -33 115 -36 135 -36 250 0 104 4 144
28 239 36 144 32 187 -30 322 -61 134 -75 217 -76 449 0 158 4 205 27 324 24
132 31 156 41 156 2 0 64 -16 136 -35z m818 -2338 c19 -9 26 -22 28 -50 l3
-37 -721 0 -721 0 3 37 c2 28 9 41 28 50 19 10 176 13 690 13 514 0 671 -3
690 -13z m150 -542 l0 -365 -840 0 -840 0 0 365 0 365 840 0 840 0 0 -365z"/>
<path d="M2488 4059 c-21 -12 -24 -49 -6 -67 16 -16 140 -16 156 0 18 18 14
56 -7 68 -25 13 -121 13 -143 -1z"/>
<path d="M2452 3933 c-12 -2 -49 -29 -82 -60 -51 -47 -60 -52 -60 -33 0 51
-46 80 -78 48 -19 -19 -16 -173 4 -192 29 -30 45 -21 176 101 l57 53 95 0 96
0 0 -58 c0 -63 11 -82 47 -82 33 0 46 33 41 111 -6 104 -18 114 -161 116 -61
0 -122 -1 -135 -4z"/>
<path d="M2370 530 c-8 -14 -8 -26 0 -40 10 -19 21 -20 190 -20 169 0 180 1
190 20 8 14 8 26 0 40 -10 19 -21 20 -190 20 -169 0 -180 -1 -190 -20z"/>
<path d="M2132 368 c-16 -16 -15 -43 2 -57 9 -8 131 -10 431 -9 385 3 419 4
429 21 8 12 8 22 0 35 -10 16 -44 17 -430 20 -318 2 -423 -1 -432 -10z"/>
</g>
</svg>
